HIERARCHY
ROOT Hips
{
 OFFSET 0.000000 0.000000 0.000000
 CHANNELS 6 Xposition Yposition Zposition Yrotation Xrotation Zrotation
 JOINT Chest
 {
  OFFSET 0.000000 10.678932 0.006280
  CHANNELS 3 Yrotation Xrotation Zrotation
  JOINT Chest2
  {
   OFFSET 0.000000 10.491159 -0.011408
   CHANNELS 3 Yrotation Xrotation Zrotation
   JOINT Chest3
   {
    OFFSET 0.000000 9.479342 0.000000
    CHANNELS 3 Yrotation Xrotation Zrotation
    JOINT Chest4
    {
     OFFSET 0.000000 9.479342 0.000000
     CHANNELS 3 Yrotation Xrotation Zrotation
     JOINT Neck
     {
      OFFSET 0.000000 13.535332 0.000000
      CHANNELS 3 Yrotation Xrotation Zrotation
      JOINT Head
      {
       OFFSET 0.000000 8.819083 -0.027129
       CHANNELS 3 Yrotation Xrotation Zrotation
       End Site
       {
        OFFSET 0.000000 16.966594 -0.014170
       }
      }
     }
     JOINT RightCollar
     {
      OFFSET -3.012546 7.545150 0.000000
      CHANNELS 3 Yrotation Xrotation Zrotation
      JOINT RightShoulder
      {
       OFFSET -13.683099 0.000000 0.000000
       CHANNELS 3 Yrotation Xrotation Zrotation
       JOINT RightElbow
       {
        OFFSET -26.359998 0.000000 0.000000
        CHANNELS 3 Yrotation Xrotation Zrotation
        JOINT RightWrist
        {
         OFFSET -21.746691 0.000000 0.008601
         CHANNELS 3 Yrotation Xrotation Zrotation
         End Site
         {
          OFFSET -16.348058 0.000000 0.000000
         }
        }
       }
      }
     }
     JOINT LeftCollar
     {
      OFFSET 3.012546 7.545150 0.000000
      CHANNELS 3 Yrotation Xrotation Zrotation
      JOINT LeftShoulder
      {
       OFFSET 13.683099 0.000000 0.000000
       CHANNELS 3 Yrotation Xrotation Zrotation
       JOINT LeftElbow
       {
        OFFSET 26.359998 0.000000 0.000000
        CHANNELS 3 Yrotation Xrotation Zrotation
        JOINT LeftWrist
        {
         OFFSET 21.746691 0.000000 0.008601
         CHANNELS 3 Yrotation Xrotation Zrotation
         End Site
         {
          OFFSET 16.348058 0.000000 0.000000
         }
        }
       }
      }
     }
    }
   }
  }
 }
 JOINT RightHip
 {
  OFFSET -8.622479 -0.030774 -0.003140
  CHANNELS 3 Yrotation Xrotation Zrotation
  JOINT RightKnee
  {
   OFFSET 0.000000 -37.209160 -0.002630
   CHANNELS 3 Yrotation Xrotation Zrotation
   JOINT RightAnkle
   {
    OFFSET 0.000000 -37.343279 -0.058479
    CHANNELS 3 Yrotation Xrotation Zrotation
    JOINT RightToe
    {
     OFFSET 0.000000 -8.903465 15.088070
     CHANNELS 3 Yrotation Xrotation Zrotation
     End Site
     {
      OFFSET 0.000000 -1.471739 6.884388
     }
    }
   }
  }
 }
 JOINT LeftHip
 {
  OFFSET 8.622479 -0.030774 -0.003140
  CHANNELS 3 Yrotation Xrotation Zrotation
  JOINT LeftKnee
  {
   OFFSET 0.000000 -37.209160 -0.002630
   CHANNELS 3 Yrotation Xrotation Zrotation
   JOINT LeftAnkle
   {
    OFFSET 0.000000 -37.343279 -0.058479
    CHANNELS 3 Yrotation Xrotation Zrotation
    JOINT LeftToe
    {
     OFFSET 0.000000 -8.903465 15.088070
     CHANNELS 3 Yrotation Xrotation Zrotation
     End Site
     {
      OFFSET 0.000000 -1.471739 6.884388
     }
    }
   }
  }
 }
}
MOTION
Frames: 15
Frame Time: 0.200000
-26.804472 77.525246 129.951072 -148.632066 -2.816123 -0.379264 3.954824 8.227540 -0.714632 0.272590 0.563255 -0.072045 0.426688 0.882440 -0.111667 3.509253 7.351055 -0.730924 -4.896761 16.346919 -0.958184 -8.754073 -5.746933 -0.028500 -6.197600 -1.676117 -3.192506 6.978560 -32.075759 56.789303 41.910660 0.397622 4.503224 -2.495383 -4.267742 -24.143289 -4.534810 -10.617088 13.861186 28.692645 -32.891365 -66.383517 -103.322821 -12.073685 2.945579 18.597420 6.102555 20.611660 -5.550231 -6.483223 -18.800036 19.402924 29.038926 2.796909 3.100957 -26.137241 10.878300 0.030668 0.062187 0.217416 -7.707210 -14.388722 29.906337 -1.262285 53.284672 -4.897899 -8.362704 -0.882596 -27.647159 -0.628711 -28.154247 3.216625
-28.328429 75.494754 131.011208 -154.040132 -3.166265 5.770269 5.304509 9.005998 -0.700694 0.398515 0.676165 -0.077527 0.616411 1.046706 -0.117998 4.537419 7.773120 -0.608762 -4.594071 13.797980 -4.343889 -6.942603 -10.622658 -6.370645 -0.628714 -2.913488 -2.534958 3.198568 -24.557784 54.236621 32.937433 -3.251736 0.447992 -2.512762 -3.472312 -25.713349 -1.445621 -12.341235 17.341203 30.238154 -34.463312 -62.649486 -96.033817 -23.670020 4.421045 19.191584 5.777689 21.801538 -0.901313 -14.601781 -25.629713 25.388461 37.437367 3.250471 1.491515 -29.330977 14.863420 -0.045520 0.124479 0.041288 -19.955265 -12.453205 17.956892 -11.214315 53.482607 -2.234221 -13.159165 -10.551844 -14.630270 0.251770 -20.434251 -3.126843
-27.175339 76.180755 126.243372 -127.972941 -10.894011 -14.740990 -3.180646 9.984794 11.346973 -0.456188 1.108323 1.298879 -0.659785 1.627117 1.899999 -2.713583 8.121679 9.142849 -6.716664 13.822901 -1.077914 -12.247240 -10.328914 0.623322 10.834225 11.742794 -1.976435 47.588849 -42.754217 55.518282 44.743348 18.830460 7.901969 -5.586360 -3.090430 -21.822954 -31.568245 -10.796384 9.242083 -40.774314 -42.339199 -47.179197 -97.139336 -6.730662 -16.344065 18.140444 3.141529 14.468851 1.449464 17.958391 -5.248247 -2.739530 15.298375 1.554766 -0.843553 -21.301140 15.824424 0.100276 -0.042175 -0.175339 15.745520 -35.187909 46.879494 9.945865 67.230140 -7.027934 -16.832200 2.924606 -11.925974 -2.825231 -25.681720 13.365263
-26.563672 77.396555 130.686573 -143.175284 -8.692680 -9.484152 1.836462 11.044691 6.421837 0.346781 1.281801 0.589647 0.520763 1.905621 0.880156 3.194924 10.201891 5.013761 -5.096764 12.189730 -0.145479 -9.669467 -13.382785 1.880434 6.306072 1.086227 -3.352791 40.049714 -43.479555 48.317480 44.970921 7.564787 6.331886 -3.169033 -4.747436 -21.743836 -19.409307 -13.492572 23.485393 -20.046286 -23.511757 -43.470925 -105.322649 4.924678 -17.241600 9.218852 2.130869 20.187908 -1.454313 -2.967264 -16.480531 12.012209 26.980764 4.214847 5.799623 -10.780122 14.168610 -0.637287 -5.581953 4.488359 12.843724 -24.474442 33.228256 12.790505 60.632043 -6.210545 1.637011 -14.744298 -13.076689 0.768142 -10.888674 7.171606
-13.540513 87.056041 132.707283 -150.202359 -0.417636 -2.826128 0.430581 8.196624 0.904419 -0.000396 0.484077 0.014337 -0.000572 0.767869 0.022741 0.006929 7.293969 0.216780 -3.024392 13.000180 -1.197100 -5.249836 -12.031288 -1.028692 -6.418728 -4.600794 -14.136244 4.622441 -33.090931 14.893206 -2.280213 -24.263468 2.887883 -3.614186 -5.329501 -20.682609 3.353191 -12.015249 38.408742 12.403590 -10.807606 -33.122550 -15.809501 -16.061336 -6.126038 4.846197 3.756947 15.820775 -4.600517 -14.804593 -9.817634 8.196289 48.073868 10.151283 15.162724 12.366581 21.126091 -1.667564 -11.052744 -8.642289 2.992310 -18.968776 25.679099 13.547555 33.360458 -3.936080 -0.087378 13.830113 -11.895701 -0.037947 -9.893594 -1.496036
-3.804094 83.854314 138.862169 -154.428887 2.027939 2.290213 0.789825 6.210098 -2.182418 0.049494 0.312404 -0.102523 0.079463 0.503343 -0.165039 0.828653 5.800848 -1.861523 -1.736450 11.473049 -0.745252 -3.008633 -14.875712 -0.670937 -4.510920 -9.224347 -13.916408 0.087031 -13.496450 41.095985 11.476914 -13.686578 -0.845778 0.630333 -5.570230 -22.360829 12.255565 -2.470525 26.073568 15.935675 -1.307130 -52.220309 -39.831701 -0.835737 0.232311 5.961111 4.537177 15.328848 -3.482157 -5.776662 -5.792238 7.200842 24.031390 5.540586 2.008950 -18.256749 -5.909999 -0.258504 0.440841 0.748424 -0.298146 -31.046112 16.476612 -77.248058 85.925529 -84.117455 -2.129143 -16.112461 -16.283096 1.625182 0.168903 4.117962
-2.753559 83.568364 137.608891 -149.963292 -1.551692 -0.680704 -3.301944 4.359291 1.101754 -0.136622 0.189018 0.060206 -0.222502 0.308046 0.097866 -2.972827 4.201312 1.225052 -0.791178 14.952845 -0.446097 -1.313083 -8.416714 -0.535227 -0.665850 3.983515 8.695057 7.685689 -8.175040 73.440928 1.043476 -5.498262 2.346841 1.302282 -7.270136 -29.061336 0.436717 8.187945 -8.586967 -8.019854 -4.647829 -83.694563 -6.427648 3.755389 0.477824 2.109789 0.732942 20.387458 -3.208396 0.292129 -0.748657 4.467014 19.114583 1.719233 -1.132214 -17.913771 -5.416848 -0.187448 -1.419907 0.168871 -10.937626 7.959250 -3.857988 11.570395 10.801313 1.621076 11.834962 -18.502033 -6.534280 0.088515 2.269059 1.055010
-3.517330 82.827234 133.061973 -147.225597 -3.154469 3.468157 4.281540 9.569510 -3.972179 0.376410 0.792382 -0.374578 0.573982 1.213639 -0.571168 3.640645 8.248352 -3.620475 -5.151482 11.493861 2.532748 -10.978931 -14.393551 7.088644 8.795450 -4.082067 3.571250 50.903391 -8.908041 73.306484 9.178379 41.715864 3.301721 -31.369855 20.760147 26.241062 -6.558856 -0.794191 0.806208 -23.854854 5.373878 -78.183478 -27.840014 46.907758 -11.258749 0.933370 4.766832 18.846749 -9.182674 -14.781633 -10.426333 5.209059 51.912810 9.708916 4.439226 -23.727973 1.409100 -0.106382 -2.635551 -2.336573 -6.395774 13.236235 -4.877641 8.278406 2.885744 -0.424153 10.083145 -17.268232 -7.705458 0.012274 -0.535427 -0.479372
-4.730484 76.371974 113.275700 -130.348656 0.002216 -7.813572 -6.709702 6.434265 6.065805 -0.639884 0.549906 0.294321 -0.982006 0.846240 0.449683 -6.698953 6.020576 2.825722 -2.061910 12.351318 -2.347618 -2.941437 -13.261535 -3.607235 -2.283709 -1.435276 -8.237731 -2.997586 -34.290510 67.094733 138.531931 -24.083891 11.764311 9.261916 -12.165529 6.018059 10.868400 9.824080 15.852543 -23.901185 25.734152 -88.375399 -103.303051 36.174972 -46.962327 -3.779097 5.393705 15.851449 8.446507 -5.098211 8.368427 -2.606053 47.504370 7.640717 6.525252 -21.071637 1.583955 0.899103 -18.437926 -11.778082 1.301818 -38.677753 35.958996 -4.867530 88.859793 -16.795146 -9.806081 -1.853947 -13.049852 0.247276 -14.271932 3.539130
-12.101029 79.171976 101.242643 -128.003358 1.580482 -0.698834 -2.266569 4.588038 1.279229 -0.077595 0.178184 0.064828 -0.126964 0.291836 0.106036 -1.814578 4.311529 1.495669 -5.680909 13.492160 -2.588715 -9.703997 -11.111061 -2.609633 -3.876011 -0.320205 7.467349 -32.113451 -18.441282 82.972786 85.874584 -56.617365 -28.399360 43.115769 1.072027 -53.840104 12.020622 7.538115 13.051315 -19.289477 24.476962 -81.907973 -112.970328 26.796557 -51.529930 -5.832699 3.522502 17.257096 3.729638 13.044532 7.920886 -6.139608 26.157532 2.198288 5.220482 -13.220759 -2.172368 2.329164 -27.399067 -9.718756 6.353630 -34.196261 24.736034 15.552119 63.195101 -7.386002 -7.068336 8.840834 -20.274346 -1.166662 -19.250197 12.337637
-19.165631 86.690871 87.239456 -145.889089 -4.979752 -0.512665 0.769288 8.345971 1.229920 -0.011706 0.395472 -0.001369 -0.018735 0.632787 -0.002229 -0.199314 6.661929 -0.034006 -3.121354 14.397771 -4.892843 -3.968185 -9.475181 -7.987349 5.512159 -0.825630 2.716589 23.033480 -11.047421 58.515855 83.477828 -7.426400 22.484280 -11.103158 -4.843385 10.631445 5.462887 9.078061 16.420547 -22.975689 22.914656 -82.314862 -111.037775 28.724219 -46.775838 -8.095918 4.470443 18.883462 -3.392152 -1.744610 2.607351 0.777089 26.713904 2.568689 2.628018 -11.367185 5.097605 -1.259548 6.756359 -0.988907 6.855225 1.993455 15.110520 26.059204 32.143103 2.946625 2.609580 8.497016 -10.697980 0.931582 -29.515668 -6.290959
-24.980744 77.529175 70.294876 -130.055933 -8.654082 -4.405515 -6.595347 9.108954 6.052074 -0.542692 0.734493 0.773618 -0.814613 1.110404 1.164007 -4.538559 6.858257 6.737095 -2.634565 15.041322 -8.662080 -1.674832 -8.094958 -15.221037 -3.597516 -0.762276 4.159826 -38.492172 -16.277900 87.314455 125.409106 -25.991637 -15.606882 43.459685 -5.833858 -44.403121 18.168778 14.446664 8.413311 -22.259031 25.689775 -91.099093 -105.771200 29.230927 -43.550088 -10.843540 1.721222 18.984552 6.367432 -1.316923 9.134627 -4.091990 41.498879 11.767612 6.364720 -29.222875 -12.859461 0.431184 -1.664285 0.165997 -0.315066 -44.797991 34.471328 32.082968 89.766814 19.567613 1.470697 2.456813 -9.639254 1.778240 2.111255 5.375225
-34.445558 86.552453 50.891651 -148.179157 -8.553461 0.954624 4.948010 8.445872 0.011588 0.363766 0.600609 -0.054493 0.566274 0.935489 -0.083211 4.428140 7.355643 -0.405616 -4.852761 17.312674 -4.009652 -7.584962 -4.096708 -5.736901 5.857647 -4.408323 1.699953 20.656138 -13.664579 62.080889 42.934300 -22.110345 20.753244 -6.689435 -14.655793 -11.648482 7.362870 6.478864 17.261969 -20.316496 23.973019 -80.077354 -114.121152 23.094743 -47.071231 -8.961632 3.600568 17.159460 4.632388 3.003484 1.012649 -3.725986 40.884951 5.455683 6.321351 -6.634524 7.887412 -1.068751 -1.081469 -3.974192 -0.629025 -0.765100 9.967296 24.787705 26.621232 0.259142 3.857103 7.233744 -10.263916 -0.393776 -19.001078 2.096695
-37.025173 78.781096 32.528676 -140.267678 -16.213532 -7.373599 -2.174737 12.830333 6.801403 -0.162256 1.103617 0.640731 -0.238873 1.656795 0.960436 -1.000026 9.581069 5.477748 -3.932929 15.246708 -6.610906 -4.875823 -7.909629 -10.886703 -3.010501 -1.783582 3.346854 -26.646327 -11.376671 79.570457 134.238909 -30.409703 3.426179 40.069623 -11.747367 -31.578082 14.689961 8.835117 15.995901 -16.166286 28.047849 -81.319354 -129.157612 20.570660 -43.832595 10.554500 4.629780 -39.338263 7.863385 0.452594 8.547377 1.076828 37.972437 12.952287 8.139368 -22.430335 -6.644863 0.100604 2.352613 4.131310 -4.003769 -33.253282 41.678403 -146.487382 86.912469 -158.383393 2.181965 9.878668 -8.679806 0.731738 0.984150 2.025848
-50.055049 83.796580 14.427133 -128.556207 -10.559607 -1.491036 -10.567512 3.789933 -0.368757 -0.546325 0.573654 0.153961 -0.843795 0.887269 0.235666 -6.111864 6.560855 1.424846 -5.350073 17.617481 -4.049829 -8.491488 -3.533088 -5.651302 -13.444408 5.980476 -3.751311 -13.274330 27.893918 69.919877 88.304837 -19.974636 33.109906 -1.632393 -8.418180 -5.696660 -13.165449 -14.365519 -2.500183 -7.423749 -20.213767 -52.933968 -40.037404 -36.032834 -18.381726 0.761653 -7.662420 -30.466835 -3.252630 -7.607968 -2.174085 5.095592 61.704626 15.085060 8.156715 1.144171 7.656479 1.871796 -22.781467 -15.470601 -4.462226 -5.762999 8.401876 17.320672 10.042844 -2.295998 -2.052286 13.912714 -13.005732 2.249634 -3.851013 9.860317
